<svg xmlns="http://www.w3.org/2000/svg" width="200" height="200" viewBox="0 0 200 200">
<g>
<path d="M 99.10 143.87 C97.23,144.49 95.21,144.97 94.60,144.94 C90.98,144.73 82.29,139.16 74.29,131.94 C71.43,129.35 65.54,124.74 61.19,121.69 C51.91,115.19 46.32,109.00 41.53,99.91 C37.00,91.30 35.00,83.37 35.00,73.93 C35.00,63.16 36.43,56.83 40.96,47.46 C52.32,23.98 79.70,10.79 105.59,16.31 C133.21,22.20 154.08,49.39 151.72,76.38 C150.99,84.68 149.18,92.39 147.44,94.64 C146.11,96.36 145.92,96.38 144.99,94.82 C142.09,90.00 134.25,82.12 127.82,77.57 C121.53,73.12 120.40,71.84 119.31,67.97 C115.72,55.23 107.60,48.22 95.28,47.23 C84.92,46.40 76.18,51.01 70.22,60.45 C68.30,63.48 67.56,66.24 67.22,71.54 C66.82,77.66 67.10,79.27 69.31,83.63 C72.07,89.07 79.32,96.24 93.50,107.53 C109.12,119.97 112.66,125.45 110.08,133.26 C108.70,137.45 103.61,142.36 99.10,143.87 Z" fill="rgb(35,31,32)"/>
<path d="M 110.85 182.39 C103.05,184.61 86.31,184.47 78.97,182.12 C63.54,177.18 49.82,165.70 43.40,152.36 C39.15,143.52 37.03,136.18 37.01,130.25 L 37.00 126.00 L 50.97 126.00 C64.26,126.00 66.64,125.78 62.10,122.34 C66.33,125.36 71.63,129.52 74.29,131.94 C77.25,134.61 80.30,137.05 83.15,139.08 C79.98,136.96 77.04,134.75 76.10,133.63 C75.38,132.75 73.55,131.42 72.03,130.67 L 69.28 129.29 L 70.18 133.40 C71.17,137.94 75.45,144.49 79.30,147.37 C80.67,148.40 84.20,150.10 87.15,151.14 C93.54,153.42 99.84,153.05 106.74,150.00 C112.52,147.44 115.21,145.00 118.77,139.06 C121.15,135.08 121.49,133.49 121.45,126.50 C121.37,114.38 118.31,109.86 101.50,96.99 C90.74,88.76 80.97,79.84 79.41,76.82 C74.95,68.20 81.53,56.68 91.70,55.31 C96.85,54.62 100.49,56.35 110.05,64.00 C118.78,70.99 120.20,71.45 118.89,66.57 C119.04,67.03 119.18,67.50 119.31,67.97 C120.40,71.84 121.53,73.12 127.82,77.57 C134.25,82.12 142.09,90.00 144.99,94.82 C145.92,96.38 146.11,96.36 147.44,94.64 C147.71,94.29 147.98,93.81 148.25,93.21 C146.83,97.38 146.90,97.83 149.34,103.63 C152.18,110.36 153.98,119.70 153.99,127.70 C154.03,151.98 135.61,175.32 110.85,182.39 ZM 138.60 36.81 C131.75,28.47 122.66,21.84 112.32,18.21 C114.77,19.02 117.20,19.99 119.59,21.14 C126.33,24.36 133.18,30.12 138.60,36.81 ZM 40.96 47.46 C48.20,32.51 61.31,22.15 76.38,17.67 C61.20,22.31 48.01,32.91 40.96,47.46 ZM 150.24 86.50 C150.88,83.51 151.40,80.00 151.72,76.38 C151.93,73.91 151.95,71.44 151.79,68.99 C152.25,74.69 151.73,80.44 150.24,86.50 ZM 41.74 100.30 C39.45,96.12 37.65,91.74 36.53,87.45 C36.15,85.98 35.84,84.26 35.60,82.39 C36.49,88.38 38.41,93.99 41.53,99.91 C41.60,100.04 41.67,100.17 41.74,100.30 ZM 59.68 120.62 C59.43,120.44 59.16,120.26 58.89,120.07 C56.06,118.15 53.31,115.71 50.74,112.91 C53.30,115.59 56.22,118.09 59.68,120.62 ZM 111.58 54.12 C107.36,50.18 101.76,47.75 95.28,47.23 C101.97,47.77 107.42,50.08 111.58,54.12 ZM 103.34 141.60 C106.41,139.38 109.13,136.15 110.08,133.26 C109.00,136.53 106.41,139.52 103.34,141.60 ZM 35.23 67.29 C35.39,65.01 35.65,62.84 36.01,60.93 C36.22,59.83 36.67,58.29 37.26,56.55 C36.17,60.02 35.54,63.41 35.23,67.29 Z" fill="rgb(207,211,213)"/>
<path d="M 0.00 100.00 L 0.00 0.00 L 100.00 0.00 L 200.00 0.00 L 200.00 100.00 L 200.00 200.00 L 100.00 200.00 L 0.00 200.00 L 0.00 100.00 ZM 110.85 182.39 C135.61,175.32 154.03,151.98 153.99,127.70 C153.98,119.70 152.18,110.36 149.34,103.63 C146.87,97.74 146.83,97.37 148.32,93.01 C153.86,76.84 153.10,63.25 145.79,48.00 C140.49,36.94 129.89,26.07 119.59,21.14 C90.15,7.03 54.80,18.86 40.96,47.46 C38.80,51.93 36.57,58.00 36.01,60.93 C34.54,68.70 34.77,80.71 36.53,87.45 C39.79,99.98 48.92,113.29 58.89,120.07 C67.15,125.69 66.73,126.00 50.97,126.00 L 37.00 126.00 L 37.01 130.25 C37.03,136.18 39.15,143.52 43.40,152.36 C49.82,165.70 63.54,177.18 78.97,182.12 C86.31,184.47 103.05,184.61 110.85,182.39 ZM 87.15 151.14 C84.20,150.10 80.67,148.40 79.30,147.37 C75.45,144.49 71.17,137.94 70.18,133.40 L 69.28 129.29 L 72.03 130.67 C73.55,131.42 75.38,132.75 76.10,133.63 C78.05,135.97 88.64,142.98 92.01,144.15 C98.06,146.26 107.71,140.44 110.08,133.26 C112.66,125.45 109.12,119.97 93.50,107.53 C79.32,96.24 72.07,89.07 69.31,83.63 C67.10,79.27 66.82,77.66 67.22,71.54 C67.56,66.24 68.30,63.48 70.22,60.45 C76.18,51.01 84.92,46.40 95.28,47.23 C106.97,48.17 115.78,55.32 118.82,66.32 C120.24,71.46 118.94,71.12 110.05,64.00 C100.49,56.35 96.85,54.62 91.70,55.31 C81.53,56.68 74.95,68.20 79.41,76.82 C80.97,79.84 90.74,88.76 101.50,96.99 C118.31,109.86 121.37,114.38 121.45,126.50 C121.49,133.49 121.15,135.08 118.77,139.06 C115.21,145.00 112.52,147.44 106.74,150.00 C99.84,153.05 93.54,153.42 87.15,151.14 Z" fill="rgb(254,254,254)"/>
</g>
</svg>